<svg width="134" height="34" viewBox="0 0 134 34" fill="none" xmlns="http://www.w3.org/2000/svg">
<path d="M8.96 33V28.2C8.56 30.84 7.44 33.36 4.2 33.36C1.6 33.36 0.04 31.72 0.04 28.56C0.04 22 6.8 16.48 8.92 13.4C8.68 10.6 7.64 9.36 5.56 9.36C3.56 9.36 2.6 10.52 2 12.8L0.92 9H6C8.6 9 11.28 8.72 11.28 14.44V33H8.96ZM2.36 27.08C2.36 30.32 3.76 32.52 5.52 32.52C7.24 32.52 8.68 30.44 8.96 25.4V14.76C8.96 14.48 8.96 14.24 8.96 14C6.96 16.84 2.36 21.2 2.36 27.08ZM16.8969 9C17.8969 9 18.8969 9.2 19.3369 9.8C20.2569 8.92 21.2569 8.6 22.4969 8.6C24.8169 8.6 26.2569 9.68 26.4969 10.04C25.7369 10.68 25.0969 11.84 24.6569 13.6C24.3769 11.12 23.0169 9.56 21.1769 9.56C20.4569 9.56 19.9369 9.8 19.4969 10.28V33H16.8969V9ZM33.6763 33.4C31.7563 33.4 29.9163 31.88 29.9163 28.56V9.48H28.1963V9C30.2363 9 31.9163 5.96 32.5163 4.56V9H37.0763L36.6363 11.24C36.3963 9.88 34.3563 9.48 32.8363 9.48H32.5163V30.44C32.5163 32.32 33.0363 32.96 34.0362 32.96C35.0763 32.96 36.0363 32 36.2763 31.04L36.8363 32.32C35.7563 33.12 34.7563 33.4 33.6763 33.4ZM48.2113 20.64C46.6113 20.64 45.6113 19.64 45.6113 17.84C45.6113 16.12 46.5713 15.04 48.2113 15.04C49.7313 15.04 50.7713 16.04 50.7713 17.84C50.7713 19.6 49.7713 20.64 48.2113 20.64ZM59.4591 33V1H62.2191V10.12C65.5391 8.16 69.4591 7.08 70.9391 6.72V1H73.6591V33H70.9391V9.08C69.3391 9.48 65.4591 10.6 62.2191 12.56V33H59.4591ZM62.2191 12C65.5391 10.04 69.4591 8.96 70.9391 8.6V7.2C69.3391 7.6 65.4591 8.68 62.2191 10.68V12ZM78.6456 33C80.9256 31.6 83.5256 27.12 83.5256 23.48C83.5256 18.88 79.4456 14.16 79.4456 8.56C79.4456 4.04 82.1656 0.839999 88.9256 0.839999C90.7256 0.839999 92.3256 1.08 93.9256 1.32V33H91.1656V9.2C89.3656 9.68 85.8056 10.76 82.7656 12.6C83.4056 15.6 84.3656 18.52 84.3656 22.64C84.3656 25.72 83.8456 29.52 82.9656 33H78.6456ZM82.2456 8.04C82.2456 8.88 82.2856 9.64 82.4056 10.4C85.5656 8.44 89.4056 7.28 91.1656 6.84V2.28C91.1656 1.56 90.8056 1.32 88.9256 1.32C84.2056 1.32 82.2456 3.4 82.2456 8.04ZM82.4856 10.92C82.5256 11.32 82.6056 11.76 82.6856 12.16C85.8056 10.28 89.4456 9.2 91.1656 8.72V7.32C89.3256 7.8 85.5256 8.96 82.4856 10.92ZM109.756 33.4C103.756 33.4 100.036 29.96 100.036 23.04C100.036 17 102.916 12.92 102.916 7.68C102.916 3.8 101.356 1.72 100.036 1H103.796C105.356 2.8 105.756 4.88 105.756 6.84C105.756 12.28 102.836 16.96 102.836 22.88C102.836 27.76 104.516 32.96 109.956 32.96C111.396 32.96 111.756 32.6 111.756 31.72V0.959998H114.316V33.04C112.756 33.2 111.316 33.4 109.756 33.4ZM125.463 33.4C120.863 33.4 118.703 28.52 118.983 23.36C119.663 22.92 120.383 22.36 121.503 20.52C120.903 26.76 121.823 32.76 126.223 32.76C128.703 32.76 131.183 31.6 131.183 26.6C131.183 15.76 120.543 14.56 120.543 6.72C120.543 2.48 123.103 0.599998 127.063 0.599998C129.103 0.599998 131.383 1.08 132.623 2.48C131.263 3.4 130.783 4.52 130.303 6.12C129.663 3.28 127.543 1.44 125.023 1.44C123.143 1.44 121.903 2.48 121.903 5.12C121.903 12.36 133.183 13.84 133.183 24.64C133.183 30.76 129.303 33.4 125.463 33.4Z" fill="white"/>
</svg>
