<svg width="40" height="40" viewBox="0 0 40 40" fill="none" xmlns="http://www.w3.org/2000/svg">
<g clip-path="url(#clip0_219_1111)">
<path d="M40 20.0008C40 8.95507 31.0457 0.000778198 20 0.000778198C8.9543 0.000778198 0 8.95507 0 20.0008C0 29.9834 7.31371 38.2574 16.875 39.7578V25.782H11.7969V20.0008H16.875V15.5945C16.875 10.582 19.8609 7.81328 24.4293 7.81328C26.6175 7.81328 28.9062 8.2039 28.9062 8.2039V13.1258H26.3843C23.8998 13.1258 23.125 14.6675 23.125 16.2491V20.0008H28.6719L27.7852 25.782H23.125V39.7578C32.6863 38.2574 40 29.9834 40 20.0008Z" fill="#F5F5F5"/>
<path d="M27.7852 25.7812L28.6719 20H23.125V16.2483C23.125 14.6667 23.8998 13.125 26.3843 13.125H28.9063V8.20312C28.9063 8.20312 26.6175 7.8125 24.4293 7.8125C19.8609 7.8125 16.875 10.5812 16.875 15.5938V20H11.7969V25.7812H16.875V39.757C17.8932 39.9168 18.9369 40 20 40C21.0631 40 22.1068 39.9168 23.125 39.757V25.7812H27.7852Z" fill="#3A3635"/>
</g>
<defs>
<clipPath id="clip0_219_1111">
<rect width="40" height="40" fill="white"/>
</clipPath>
</defs>
</svg>
