<svg width="40" height="40" viewBox="0 0 40 40" fill="none" xmlns="http://www.w3.org/2000/svg">
<g clip-path="url(#clip0_219_1116)">
<path d="M20.0005 40.001C31.0465 40.001 40.001 31.0465 40.001 20.0005C40.001 8.95453 31.0465 0 20.0005 0C8.95453 0 0 8.95453 0 20.0005C0 31.0465 8.95453 40.001 20.0005 40.001Z" fill="#F5F5F5"/>
<path d="M17.2157 16.628V15.5364C16.8415 15.4852 16.4612 15.4531 16.0729 15.4531C11.3974 15.4531 7.59375 19.2568 7.59375 23.9323C7.59375 26.8009 9.02752 29.3393 11.2138 30.8744C9.80209 29.3594 8.93621 27.3296 8.93621 25.1012C8.93621 20.4929 12.6325 16.7344 17.2157 16.627V16.628Z" fill="#25F4EE"/>
<path d="M17.4158 28.9748C19.5017 28.9748 21.2034 27.3153 21.2806 25.2485L21.2877 6.78607H24.6609C24.5906 6.40681 24.5525 6.01652 24.5525 5.61719H19.9452L19.9382 24.0796C19.8609 26.1474 18.1593 27.806 16.0733 27.806C15.4252 27.806 14.8141 27.6434 14.2773 27.3615C14.9817 28.3367 16.1245 28.9759 17.4168 28.9759L17.4158 28.9748Z" fill="#25F4EE"/>
<path d="M30.9633 13.0521V12.0257C29.677 12.0257 28.478 11.6435 27.4727 10.9883C28.3676 12.0157 29.5837 12.7572 30.9633 13.0521Z" fill="#25F4EE"/>
<path d="M27.4705 10.9871C26.4902 9.86138 25.8943 8.3915 25.8943 6.78516H24.6602C24.9852 8.53999 26.0267 10.046 27.4705 10.9871Z" fill="#FE2C55"/>
<path d="M16.0721 20.0595C13.937 20.0595 12.1992 21.7963 12.1992 23.9324C12.1992 25.4193 13.043 26.7116 14.2751 27.3598C13.8156 26.7237 13.5417 25.9441 13.5417 25.1013C13.5417 22.9662 15.2795 21.2284 17.4146 21.2284C17.8129 21.2284 18.1952 21.2946 18.5574 21.407V16.7044C18.1831 16.6532 17.8028 16.6211 17.4146 16.6211C17.3473 16.6211 17.2811 16.6251 17.2139 16.6261V20.2381C16.8527 20.1247 16.4694 20.0595 16.0711 20.0595H16.0721Z" fill="#FE2C55"/>
<path d="M30.9625 13.0508V16.6317C28.5736 16.6317 26.3602 15.8671 24.5532 14.5708V23.933C24.5532 28.6085 20.7495 32.4122 16.074 32.4122C14.267 32.4122 12.5914 31.8423 11.2148 30.875C12.764 32.5376 14.9703 33.581 17.4175 33.581C22.093 33.581 25.8967 29.7774 25.8967 25.1019V15.7397C27.7037 17.037 29.917 17.8006 32.306 17.8006V13.1933C31.8454 13.1933 31.3959 13.1431 30.9635 13.0508H30.9625Z" fill="#FE2C55"/>
<path d="M24.5534 23.9332V14.571C26.3604 15.8684 28.5738 16.6319 30.9627 16.6319V13.051C29.5831 12.756 28.3671 12.0145 27.4721 10.9871C26.0283 10.046 24.9869 8.53999 24.6618 6.78516H21.2886L21.2815 25.2475C21.2043 27.3154 19.5026 28.9739 17.4167 28.9739C16.1244 28.9739 14.9816 28.3358 14.2773 27.3596C13.0442 26.7104 12.2014 25.4191 12.2014 23.9322C12.2014 21.7971 13.9391 20.0593 16.0742 20.0593C16.4726 20.0593 16.8548 20.1255 17.217 20.2379V16.6259C12.6338 16.7332 8.9375 20.4917 8.9375 25.1001C8.9375 27.3295 9.80338 29.3582 11.2151 30.8732C12.5927 31.8405 14.2672 32.4104 16.0742 32.4104C20.7498 32.4104 24.5534 28.6067 24.5534 23.9312V23.9332Z" fill="#3A3635"/>
</g>
<defs>
<clipPath id="clip0_219_1116">
<rect width="40" height="40" fill="white"/>
</clipPath>
</defs>
</svg>
