<svg width="44" height="32" viewBox="0 0 44 32" fill="none" xmlns="http://www.w3.org/2000/svg">
<g clip-path="url(#clip0_219_1128)">
<path d="M43.0805 5.37974C42.5745 3.48078 41.0837 1.98543 39.1905 1.47793C35.7592 0.555603 22 0.555603 22 0.555603C22 0.555603 8.24082 0.555603 4.80947 1.47793C2.9164 1.98543 1.42539 3.48078 0.919432 5.37974C0 8.82146 0 16.0024 0 16.0024C0 16.0024 0 23.1833 0.919432 26.6253C1.42539 28.524 2.9164 30.0194 4.80947 30.5271C8.24082 31.4492 22 31.4492 22 31.4492C22 31.4492 35.7592 31.4492 39.1905 30.5271C41.0837 30.0194 42.5745 28.524 43.0805 26.6253C44 23.1833 44 16.0024 44 16.0024C44 16.0024 44 8.82146 43.0805 5.37974Z" fill="#F5F5F5"/>
<path d="M17.5 22.5234L29 16.004L17.5 9.48397V22.5234Z" fill="#3A3635"/>
</g>
<defs>
<clipPath id="clip0_219_1128">
<rect width="44" height="30.8936" fill="white" transform="translate(0 0.554688)"/>
</clipPath>
</defs>
</svg>
